<mxfile host="app.diagrams.net" modified="2024-02-11T21:25:34.043Z" agent="Mozilla/5.0 (Windows NT 10.0; Win64; x64) AppleWebKit/537.36 (KHTML, like Gecko) Chrome/121.0.0.0 Safari/537.36" version="23.1.2" etag="Iogu2VmW4hUsSNuwyf9g" type="github">
  <diagram name="Page-1" id="vbJEwXEimGJ6m1N9uItq">
    <mxGraphModel>
      <root>
        <mxCell id="0" />
        <mxCell id="1" parent="0" />
      </root>
    </mxGraphModel>
  </diagram>
</mxfile>
